<?xml version="1.0" standalone="no"?>
<!DOCTYPE svg PUBLIC "-//W3C//DTD SVG 20010904//EN"
 "http://www.w3.org/TR/2001/REC-SVG-20010904/DTD/svg10.dtd">
<svg version="1.0" xmlns="http://www.w3.org/2000/svg"
 width="1280.000000pt" height="1156.000000pt" viewBox="0 0 1280.000000 1156.000000"
 preserveAspectRatio="xMidYMid meet">
<g transform="translate(0.000000,1156.000000) scale(0.100000,-0.100000)"
fill="#000000" stroke="none">
<path d="M5820 11549 c-36 -4 -132 -15 -215 -24 -345 -35 -643 -120 -940 -265
-376 -184 -698 -460 -972 -830 -374 -506 -653 -1221 -822 -2105 -47 -243 -86
-509 -141 -945 -60 -475 -77 -596 -96 -675 -120 -525 -590 -851 -1399 -970
-154 -23 -438 -45 -580 -45 -146 0 -147 1 98 -110 530 -241 962 -311 1330
-215 120 31 219 74 342 148 128 77 124 75 95 43 -36 -40 -169 -126 -279 -181
-271 -135 -598 -191 -974 -166 -99 6 -181 10 -183 8 -2 -2 10 -51 27 -108 35
-122 109 -282 175 -380 127 -192 330 -326 571 -379 115 -25 344 -44 460 -38
50 3 97 2 104 -3 10 -6 10 -19 0 -64 -20 -89 -69 -174 -125 -216 -84 -63 -125
-72 -358 -77 -115 -2 -208 -8 -208 -13 0 -5 55 -64 122 -132 231 -231 422
-351 856 -537 117 -50 141 -64 128 -77 -3 -3 -313 -90 -688 -193 -569 -156
-697 -194 -767 -230 -418 -210 -711 -522 -939 -1000 -90 -188 -139 -312 -260
-665 -119 -346 -160 -455 -173 -472 -6 -6 -9 -18 -7 -26 7 -31 373 -341 494
-419 53 -34 217 -116 269 -135 35 -12 784 -14 5620 -14 l5580 0 80 26 c137 45
261 120 510 310 66 50 148 111 183 135 34 23 62 48 62 55 0 7 -11 32 -24 56
-13 24 -86 177 -161 339 -244 526 -368 767 -510 995 -292 469 -597 759 -940
893 -57 23 -1529 398 -1832 467 -13 3 -23 11 -23 18 0 7 30 42 66 77 160 158
346 418 462 648 199 392 309 806 369 1382 21 206 24 868 5 1090 -59 678 -167
1347 -303 1878 -160 629 -366 1109 -674 1572 -391 588 -925 1028 -1555 1282
-224 91 -543 179 -795 222 -136 22 -236 34 -586 65 -131 12 -382 12 -479 0z"/>
</g>
</svg>
